<svg xmlns="http://www.w3.org/2000/svg" xmlns:xlink="http://www.w3.org/1999/xlink" width="665" zoomAndPan="magnify" viewBox="0 0 498.75 256.499992" height="342" preserveAspectRatio="xMidYMid meet" version="1.0"><defs><clipPath id="94047b3c88"><path d="M 249.25 120.59375 L 264.066406 120.59375 L 264.066406 135.40625 L 249.25 135.40625 Z M 249.25 120.59375 " clip-rule="nonzero"/></clipPath><clipPath id="82bee50fd8"><path d="M 1.132812 64 L 244 64 L 244 241 L 1.132812 241 Z M 1.132812 64 " clip-rule="nonzero"/></clipPath><clipPath id="0f660eebda"><path d="M 237 35 L 497.414062 35 L 497.414062 240 L 237 240 Z M 237 35 " clip-rule="nonzero"/></clipPath><clipPath id="f8faf15406"><path d="M 178 0 L 340 0 L 340 256 L 178 256 Z M 178 0 " clip-rule="nonzero"/></clipPath></defs><g clip-path="url(#94047b3c88)"><path fill="#8c9a6d" d="M 249.25 120.59375 L 264.066406 120.59375 L 264.066406 135.40625 L 249.25 135.40625 Z M 249.25 120.59375 " fill-opacity="1" fill-rule="nonzero"/></g><g clip-path="url(#82bee50fd8)"><path fill="#b04a47" d="M 237.457031 127.289062 C 238.929688 128.71875 240.402344 130.152344 241.875 131.582031 C 237.726562 139.007812 233.457031 146.367188 229.285156 153.777344 C 226.355469 158.957031 223.410156 164.121094 220.46875 169.285156 C 220.160156 169.820312 219.867188 170.367188 219.558594 170.917969 C 217.136719 175.222656 214.675781 179.503906 212.28125 183.828125 L 211.730469 183.960938 C 210.070312 184.175781 208.398438 184.121094 206.753906 184 C 198.914062 183.53125 191.074219 183.132812 183.234375 182.703125 C 179.074219 182.449219 174.914062 182.234375 170.75 182.019531 C 170.617188 184.363281 170.46875 186.71875 170.351562 189.058594 C 170.003906 195.628906 169.585938 202.195312 169.253906 208.765625 C 168.746094 217.394531 168.261719 226.023438 167.78125 234.667969 C 156.488281 236.605469 145.210938 238.585938 133.917969 240.445312 C 129.609375 236.914062 125.25 233.460938 120.941406 229.945312 C 128.609375 226.707031 136.246094 223.414062 143.941406 220.230469 C 143.578125 219.347656 143.230469 218.492188 142.871094 217.636719 C 140.488281 211.921875 138.09375 206.222656 135.683594 200.511719 C 132.179688 192.054688 128.609375 183.613281 125.074219 175.15625 C 121.636719 176.09375 118.199219 177.085938 114.761719 178.035156 C 114.480469 178.433594 114.199219 178.824219 113.929688 179.238281 L 113.851562 179.265625 C 109.101562 186.554688 104.203125 193.753906 99.269531 200.925781 C 93.730469 206.945312 87.855469 212.671875 82.210938 218.613281 C 81.328125 219.46875 80.523438 220.671875 79.144531 220.660156 C 70.785156 221.769531 62.421875 222.921875 54.074219 224.042969 C 50.289062 219.640625 46.515625 215.226562 42.714844 210.824219 C 51.210938 208.523438 59.746094 206.316406 68.269531 204.054688 C 69.472656 199.574219 70.664062 195.078125 71.855469 190.597656 C 74.316406 181.433594 76.777344 172.269531 79.171875 163.089844 L 79.398438 163.382812 C 79.386719 163.007812 79.347656 162.246094 79.332031 161.871094 C 64.601562 164.828125 49.859375 167.707031 35.128906 170.648438 C 33.164062 171.011719 31.15625 171.691406 29.164062 171.117188 C 23.554688 169.925781 17.871094 169.070312 12.292969 167.757812 C 8.4375 165.191406 4.878906 162.167969 1.132812 159.4375 C 6.269531 153.871094 11.410156 148.292969 16.558594 142.726562 C 17.976562 141.1875 19.394531 139.664062 20.800781 138.136719 C 19.691406 133.082031 18.566406 128.023438 17.46875 122.964844 C 21.671875 119.339844 25.871094 115.726562 30.070312 112.117188 C 32.09375 110.375 34.113281 108.652344 36.121094 106.898438 C 34.726562 98.949219 33.390625 91.003906 32.023438 83.058594 C 37.632812 85.734375 43.171875 88.554688 48.800781 91.179688 C 52.535156 92.167969 56.429688 92.460938 60.226562 93.199219 C 63.558594 89.105469 66.917969 85.023438 70.222656 80.890625 C 73.394531 83.429688 76.496094 86.066406 79.652344 88.609375 C 91.65625 80.554688 103.777344 72.6875 115.816406 64.675781 C 128.179688 67.445312 140.542969 70.1875 152.890625 72.996094 C 154.214844 73.289062 155.554688 73.53125 156.917969 73.625 C 167.566406 74.242188 178.203125 74.84375 188.851562 75.484375 C 202.207031 76.21875 215.542969 77.035156 228.894531 77.785156 C 230.394531 77.867188 231.894531 77.945312 233.390625 78.054688 C 236.574219 80.796875 239.828125 83.472656 243.023438 86.199219 C 240.054688 89.0625 237.082031 91.914062 234.128906 94.777344 C 229.136719 99.621094 224.121094 104.449219 219.101562 109.265625 C 220 110.164062 220.894531 111.058594 221.804688 111.941406 C 225.84375 115.863281 229.832031 119.847656 233.859375 123.78125 C 235.0625 124.945312 236.253906 126.109375 237.457031 127.289062 Z M 237.457031 127.289062 " fill-opacity="1" fill-rule="nonzero"/></g><g clip-path="url(#0f660eebda)"><path fill="#8c9a6d" d="M 474.039062 87.03125 C 473.835938 87.136719 473.421875 87.339844 473.207031 87.445312 C 473.488281 88.355469 473.796875 89.265625 474.089844 90.1875 L 474.292969 90.066406 C 474.960938 92.476562 473.769531 94.816406 473.273438 97.132812 C 472.5 100.449219 471.363281 103.699219 470.839844 107.058594 C 475.457031 115.820312 480.339844 124.464844 485.0625 133.1875 C 480.859375 134.886719 476.765625 136.921875 472.484375 138.40625 C 469.207031 138.445312 465.945312 138.097656 462.679688 138.042969 C 458.371094 138.109375 454.570312 135.796875 450.53125 134.621094 C 442.945312 131.917969 435.347656 129.226562 427.761719 126.5 C 423.679688 134.511719 419.25 142.339844 415.105469 150.328125 C 414.609375 151.15625 414.222656 152.171875 413.296875 152.613281 C 410.355469 154.234375 407.359375 155.730469 404.414062 157.335938 C 402.5 158.367188 400.574219 159.371094 398.675781 160.386719 C 400.640625 161.308594 402.632812 162.21875 404.613281 163.15625 C 410.382812 165.804688 416.121094 168.480469 421.875 171.128906 C 418.234375 184.816406 414.621094 198.492188 410.957031 212.175781 C 404.238281 213.863281 397.523438 215.496094 390.820312 217.179688 C 395.71875 205.03125 400.667969 192.898438 405.566406 180.75 C 405.203125 180.738281 404.46875 180.710938 404.09375 180.683594 L 404.09375 180.617188 C 395.625 180.082031 387.167969 179.386719 378.714844 178.796875 C 375.019531 178.527344 371.339844 178.246094 367.664062 177.992188 C 369.386719 183.199219 371.140625 188.390625 372.894531 193.582031 C 364.960938 207.265625 357.027344 220.953125 349.066406 234.613281 C 347.179688 234.613281 345.292969 234.613281 343.417969 234.679688 C 338.457031 234.707031 333.492188 234.800781 328.515625 234.855469 C 333.425781 226.292969 338.28125 217.6875 343.21875 209.140625 C 345.359375 205.328125 347.539062 201.554688 349.695312 197.753906 C 347.59375 196.242188 345.332031 194.945312 343.300781 193.351562 L 343.230469 192.953125 L 342.882812 193.046875 C 339.207031 190.851562 335.820312 188.160156 332.167969 185.902344 C 331.351562 185.273438 330.308594 185.59375 329.386719 185.621094 C 324.328125 186.089844 319.257812 186.476562 314.1875 186.902344 C 307.082031 187.507812 299.976562 188.09375 292.875 188.695312 C 282.464844 189.605469 272.042969 190.410156 261.648438 191.347656 C 260.097656 195.761719 258.449219 200.121094 256.871094 204.523438 C 259.949219 209.378906 263.214844 214.105469 266.195312 219 C 269.449219 225.742188 272.539062 232.578125 275.707031 239.375 C 269.101562 238.894531 262.492188 238.425781 255.867188 237.929688 C 255.050781 232.433594 254.183594 226.945312 253.378906 221.449219 C 248.175781 216.3125 242.945312 211.1875 237.738281 206.035156 C 239.546875 204.214844 241.363281 202.421875 243.199219 200.632812 C 252.441406 191.492188 261.726562 182.394531 270.90625 173.21875 C 275.601562 168.75 280.125 164.105469 284.765625 159.585938 C 286.800781 157.617188 288.792969 155.597656 290.8125 153.617188 C 295.347656 149.214844 299.777344 144.707031 304.339844 140.320312 C 306.585938 138.085938 308.847656 135.863281 311.082031 133.601562 C 309.664062 131.6875 308.261719 129.777344 306.839844 127.875 C 304.820312 125.171875 302.828125 122.457031 300.847656 119.730469 C 296.230469 113.347656 291.484375 107.058594 286.90625 100.648438 C 288.472656 98.082031 290.023438 95.484375 291.578125 92.902344 C 293.195312 90.28125 294.773438 87.660156 296.351562 85.023438 C 299.882812 83.875 303.363281 82.535156 306.960938 81.585938 C 307.671875 81.117188 308.378906 80.621094 308.902344 79.941406 C 314.894531 72.339844 320.957031 64.808594 326.9375 57.207031 C 328.449219 54.988281 331.339844 54.695312 333.597656 53.570312 C 339.484375 51.308594 345.171875 48.445312 351.3125 46.90625 C 354.726562 45.945312 358.136719 44.953125 361.5625 44.003906 C 362.242188 44.390625 362.9375 44.792969 363.636719 45.179688 L 363.636719 45.261719 C 372.210938 50.011719 380.652344 55.015625 389.214844 59.804688 L 389.214844 59.871094 C 394.6875 62.816406 399.957031 66.160156 405.484375 69.023438 C 409.054688 69.089844 412.617188 68.675781 416.1875 68.648438 L 416.1875 68.582031 C 423.492188 68.328125 430.785156 67.910156 438.074219 67.578125 C 440.109375 67.457031 442.167969 67.523438 444.203125 67.191406 C 448.042969 66.050781 451.613281 64.140625 455.46875 63.109375 L 455.84375 63.230469 L 455.910156 62.867188 C 457.957031 61.878906 460.152344 61.234375 462.25 60.378906 C 466.492188 51.964844 470.691406 43.523438 475.015625 35.148438 C 473.582031 46.53125 472.070312 57.90625 470.625 69.277344 C 471.628906 69.117188 472.648438 68.957031 473.675781 68.808594 C 475.832031 68.472656 477.984375 68.140625 480.140625 67.804688 C 485.890625 57.300781 491.539062 46.746094 497.355469 36.296875 C 495.109375 50.71875 492.726562 65.117188 490.414062 79.523438 C 484.96875 82.066406 479.511719 84.582031 474.039062 87.03125 Z M 474.039062 87.03125 " fill-opacity="1" fill-rule="nonzero"/></g><g clip-path="url(#f8faf15406)"><path fill="#708090" d="M 299.121094 127.902344 C 300.539062 129.804688 301.945312 131.714844 303.363281 133.628906 C 301.140625 135.878906 298.882812 138.109375 296.621094 140.34375 C 292.070312 144.734375 287.644531 149.242188 283.09375 153.644531 C 281.074219 155.625 279.09375 157.644531 277.046875 159.609375 C 272.40625 164.132812 267.882812 168.777344 263.1875 173.246094 C 253.996094 182.421875 244.710938 191.519531 235.476562 200.65625 C 233.644531 202.449219 231.824219 204.257812 230.019531 206.0625 C 223.890625 212.109375 217.75 218.128906 211.664062 224.203125 C 200.625 234.972656 189.75 245.917969 178.683594 256.675781 C 185.226562 245.007812 191.875 233.394531 198.472656 221.742188 C 203.167969 213.460938 207.863281 205.179688 212.558594 196.910156 C 215.050781 192.550781 217.484375 188.160156 220.011719 183.828125 C 222.40625 179.503906 224.882812 175.222656 227.289062 170.917969 C 227.585938 170.367188 227.894531 169.820312 228.199219 169.285156 C 231.144531 164.105469 234.085938 158.957031 237.015625 153.777344 C 241.191406 146.367188 245.460938 139.007812 249.605469 131.582031 C 248.121094 130.152344 246.648438 128.71875 245.191406 127.289062 C 243.988281 126.109375 242.796875 124.945312 241.605469 123.769531 C 237.566406 119.835938 233.59375 115.863281 229.550781 111.929688 C 228.640625 111.046875 227.730469 110.148438 226.847656 109.253906 C 231.867188 104.4375 236.882812 99.605469 241.875 94.761719 C 244.832031 91.902344 247.800781 89.039062 250.769531 86.1875 C 255.628906 81.53125 260.417969 76.808594 265.3125 72.191406 C 290.144531 48.136719 315.042969 24.164062 339.914062 0.148438 C 327.433594 21.085938 314.695312 41.875 302.105469 62.761719 L 302.011719 62.789062 C 297.675781 70.28125 293.074219 77.625 288.632812 85.050781 C 287.054688 87.6875 285.460938 90.308594 283.855469 92.929688 C 282.304688 95.511719 280.753906 98.109375 279.1875 100.675781 C 283.761719 107.085938 288.511719 113.375 293.128906 119.753906 C 295.109375 122.484375 297.101562 125.199219 299.121094 127.902344 Z M 299.121094 127.902344 " fill-opacity="1" fill-rule="nonzero"/></g></svg>