<svg xmlns="http://www.w3.org/2000/svg" xmlns:xlink="http://www.w3.org/1999/xlink" width="720" zoomAndPan="magnify" viewBox="0 0 540 149.999998" height="200" preserveAspectRatio="xMidYMid meet" version="1.0"><defs><g/><clipPath id="50aed69c21"><path d="M 96 5.136719 L 185 5.136719 L 185 144.636719 L 96 144.636719 Z M 96 5.136719 " clip-rule="nonzero"/></clipPath></defs><path fill="#933031" d="M 128.585938 74.394531 C 129.386719 75.171875 130.1875 75.953125 130.988281 76.730469 C 128.730469 80.773438 126.410156 84.773438 124.140625 88.808594 C 122.542969 91.625 120.941406 94.433594 119.339844 97.246094 C 119.175781 97.535156 119.015625 97.835938 118.847656 98.132812 C 117.527344 100.476562 116.191406 102.808594 114.886719 105.15625 L 114.589844 105.230469 C 113.683594 105.347656 112.777344 105.316406 111.878906 105.253906 C 107.613281 104.996094 103.347656 104.78125 99.082031 104.546875 C 96.820312 104.410156 94.554688 104.292969 92.289062 104.175781 C 92.21875 105.449219 92.136719 106.730469 92.070312 108.003906 C 91.882812 111.578125 91.65625 115.152344 91.476562 118.726562 C 91.199219 123.421875 90.9375 128.117188 90.675781 132.820312 C 84.53125 133.875 78.394531 134.953125 72.25 135.964844 C 69.90625 134.042969 67.53125 132.164062 65.1875 130.25 C 69.359375 128.488281 73.515625 126.699219 77.703125 124.964844 C 77.503906 124.484375 77.316406 124.019531 77.121094 123.554688 C 75.824219 120.445312 74.519531 117.34375 73.210938 114.234375 C 71.304688 109.636719 69.359375 105.042969 67.4375 100.441406 C 65.566406 100.949219 63.695312 101.488281 61.824219 102.007812 C 61.671875 102.222656 61.519531 102.4375 61.375 102.660156 L 61.332031 102.675781 C 58.746094 106.644531 56.082031 110.558594 53.394531 114.460938 C 50.382812 117.738281 47.1875 120.851562 44.113281 124.085938 C 43.632812 124.550781 43.195312 125.207031 42.449219 125.199219 C 37.898438 125.804688 33.347656 126.429688 28.804688 127.039062 C 26.746094 124.644531 24.691406 122.242188 22.625 119.847656 C 27.246094 118.597656 31.890625 117.394531 36.527344 116.164062 C 37.183594 113.726562 37.832031 111.28125 38.480469 108.839844 C 39.820312 103.855469 41.160156 98.867188 42.460938 93.875 L 42.585938 94.035156 C 42.578125 93.832031 42.554688 93.417969 42.550781 93.210938 C 34.535156 94.820312 26.511719 96.386719 18.496094 97.988281 C 17.425781 98.183594 16.335938 98.554688 15.25 98.242188 C 12.199219 97.59375 9.105469 97.128906 6.070312 96.414062 C 3.976562 95.019531 2.039062 93.371094 0 91.886719 C 2.796875 88.859375 5.589844 85.824219 8.394531 82.796875 C 9.164062 81.957031 9.9375 81.128906 10.699219 80.296875 C 10.097656 77.546875 9.484375 74.796875 8.886719 72.042969 C 11.175781 70.070312 13.460938 68.105469 15.746094 66.140625 C 16.84375 65.191406 17.945312 64.253906 19.035156 63.300781 C 18.277344 58.976562 17.550781 54.652344 16.808594 50.328125 C 19.859375 51.785156 22.871094 53.320312 25.9375 54.746094 C 27.96875 55.285156 30.085938 55.445312 32.152344 55.847656 C 33.964844 53.617188 35.792969 51.398438 37.59375 49.148438 C 39.316406 50.53125 41.007812 51.964844 42.722656 53.347656 C 49.253906 48.96875 55.847656 44.6875 62.402344 40.324219 C 69.128906 41.832031 75.851562 43.324219 82.574219 44.855469 C 83.292969 45.015625 84.019531 45.144531 84.761719 45.195312 C 90.558594 45.53125 96.34375 45.859375 102.140625 46.207031 C 109.40625 46.609375 116.664062 47.050781 123.925781 47.460938 C 124.742188 47.503906 125.558594 47.546875 126.375 47.605469 C 128.105469 49.097656 129.875 50.554688 131.613281 52.039062 C 130 53.597656 128.382812 55.148438 126.773438 56.707031 C 124.058594 59.339844 121.328125 61.96875 118.597656 64.589844 C 119.085938 65.078125 119.574219 65.566406 120.070312 66.046875 C 122.269531 68.179688 124.4375 70.347656 126.628906 72.488281 C 127.285156 73.121094 127.929688 73.753906 128.585938 74.394531 Z M 128.585938 74.394531 " fill-opacity="1" fill-rule="nonzero"/><path fill="#708090" d="M 257.3125 52.492188 C 257.203125 52.546875 256.976562 52.65625 256.859375 52.714844 C 257.011719 53.210938 257.179688 53.707031 257.339844 54.207031 L 257.449219 54.144531 C 257.8125 55.453125 257.167969 56.726562 256.898438 57.988281 C 256.472656 59.792969 255.855469 61.5625 255.570312 63.386719 C 258.082031 68.15625 260.742188 72.859375 263.308594 77.605469 C 261.023438 78.53125 258.796875 79.636719 256.46875 80.445312 C 254.683594 80.464844 252.90625 80.277344 251.132812 80.246094 C 248.789062 80.285156 246.71875 79.023438 244.519531 78.382812 C 240.394531 76.914062 236.257812 75.449219 232.132812 73.964844 C 229.910156 78.324219 227.5 82.585938 225.246094 86.929688 C 224.976562 87.382812 224.765625 87.933594 224.261719 88.175781 C 222.660156 89.054688 221.03125 89.871094 219.429688 90.746094 C 218.386719 91.304688 217.339844 91.851562 216.304688 92.40625 C 217.375 92.90625 218.460938 93.402344 219.539062 93.910156 C 222.675781 95.351562 225.796875 96.808594 228.929688 98.25 C 226.949219 105.695312 224.984375 113.136719 222.988281 120.582031 C 219.335938 121.5 215.679688 122.390625 212.03125 123.304688 C 214.695312 116.695312 217.390625 110.09375 220.054688 103.484375 C 219.859375 103.476562 219.457031 103.460938 219.253906 103.449219 L 219.253906 103.410156 C 214.644531 103.121094 210.046875 102.742188 205.445312 102.421875 C 203.433594 102.277344 201.433594 102.121094 199.429688 101.984375 C 200.371094 104.816406 201.324219 107.640625 202.277344 110.464844 C 197.960938 117.910156 193.644531 125.359375 189.3125 132.792969 C 188.285156 132.792969 187.261719 132.792969 186.242188 132.828125 C 183.539062 132.84375 180.839844 132.894531 178.132812 132.921875 C 180.804688 128.261719 183.445312 123.582031 186.132812 118.929688 C 187.296875 116.855469 188.484375 114.804688 189.65625 112.734375 C 188.511719 111.914062 187.28125 111.207031 186.175781 110.339844 L 186.140625 110.121094 L 185.949219 110.171875 C 183.949219 108.980469 182.105469 107.515625 180.117188 106.285156 C 179.675781 105.945312 179.105469 106.117188 178.605469 106.132812 C 175.851562 106.386719 173.09375 106.597656 170.335938 106.832031 C 166.46875 107.160156 162.605469 107.480469 158.738281 107.808594 C 153.074219 108.304688 147.40625 108.738281 141.75 109.25 C 140.902344 111.652344 140.007812 114.023438 139.148438 116.417969 C 140.824219 119.0625 142.601562 121.632812 144.222656 124.296875 C 145.992188 127.964844 147.671875 131.683594 149.398438 135.382812 C 145.804688 135.121094 142.207031 134.867188 138.601562 134.597656 C 138.160156 131.605469 137.6875 128.621094 137.25 125.628906 C 134.417969 122.832031 131.570312 120.046875 128.738281 117.242188 C 129.722656 116.253906 130.710938 115.277344 131.710938 114.300781 C 136.738281 109.328125 141.792969 104.378906 146.785156 99.386719 C 149.339844 96.953125 151.800781 94.429688 154.328125 91.96875 C 155.433594 90.898438 156.519531 89.796875 157.617188 88.722656 C 160.085938 86.324219 162.496094 83.871094 164.976562 81.484375 C 166.199219 80.269531 167.429688 79.0625 168.644531 77.832031 C 167.875 76.789062 167.109375 75.75 166.339844 74.714844 C 165.238281 73.246094 164.15625 71.765625 163.078125 70.28125 C 160.566406 66.808594 157.980469 63.386719 155.492188 59.902344 C 156.34375 58.503906 157.1875 57.089844 158.03125 55.6875 C 158.914062 54.257812 159.773438 52.832031 160.632812 51.398438 C 162.554688 50.773438 164.445312 50.042969 166.402344 49.527344 C 166.789062 49.273438 167.175781 49.003906 167.460938 48.632812 C 170.722656 44.496094 174.019531 40.398438 177.273438 36.265625 C 178.09375 35.054688 179.667969 34.894531 180.898438 34.285156 C 184.101562 33.054688 187.195312 31.496094 190.535156 30.660156 C 192.390625 30.132812 194.25 29.597656 196.113281 29.078125 C 196.484375 29.289062 196.863281 29.507812 197.242188 29.71875 L 197.242188 29.761719 C 201.90625 32.347656 206.5 35.070312 211.160156 37.675781 L 211.160156 37.710938 C 214.136719 39.3125 217.003906 41.132812 220.011719 42.691406 C 221.953125 42.726562 223.890625 42.503906 225.835938 42.488281 L 225.835938 42.453125 C 229.808594 42.3125 233.777344 42.085938 237.742188 41.90625 C 238.851562 41.839844 239.972656 41.875 241.078125 41.695312 C 243.167969 41.074219 245.109375 40.035156 247.207031 39.472656 L 247.410156 39.539062 L 247.449219 39.34375 C 248.5625 38.804688 249.753906 38.457031 250.898438 37.988281 C 253.207031 33.410156 255.492188 28.816406 257.84375 24.261719 C 257.0625 30.453125 256.242188 36.644531 255.457031 42.832031 C 256 42.742188 256.554688 42.65625 257.113281 42.574219 C 258.285156 42.394531 259.460938 42.210938 260.632812 42.03125 C 263.761719 36.316406 266.832031 30.570312 270 24.886719 C 268.777344 32.734375 267.480469 40.566406 266.222656 48.40625 C 263.257812 49.789062 260.289062 51.15625 257.3125 52.492188 Z M 257.3125 52.492188 " fill-opacity="1" fill-rule="nonzero"/><g clip-path="url(#50aed69c21)"><path fill="#8c9a6d" d="M 162.136719 74.730469 C 162.910156 75.761719 163.675781 76.804688 164.445312 77.84375 C 163.238281 79.066406 162.007812 80.285156 160.777344 81.5 C 158.300781 83.886719 155.890625 86.339844 153.417969 88.734375 C 152.316406 89.8125 151.242188 90.910156 150.128906 91.980469 C 147.601562 94.441406 145.140625 96.96875 142.585938 99.398438 C 137.585938 104.394531 132.53125 109.34375 127.507812 114.316406 C 126.511719 115.292969 125.523438 116.273438 124.539062 117.257812 C 121.207031 120.546875 117.863281 123.824219 114.550781 127.128906 C 108.546875 132.988281 102.628906 138.941406 96.609375 144.796875 C 100.167969 138.449219 103.785156 132.128906 107.375 125.789062 C 109.929688 121.28125 112.484375 116.777344 115.039062 112.277344 C 116.394531 109.90625 117.71875 107.515625 119.09375 105.15625 C 120.398438 102.808594 121.742188 100.476562 123.054688 98.132812 C 123.214844 97.835938 123.382812 97.535156 123.550781 97.246094 C 125.152344 94.429688 126.753906 91.625 128.347656 88.808594 C 130.617188 84.773438 132.941406 80.773438 135.195312 76.730469 C 134.386719 75.953125 133.585938 75.171875 132.792969 74.394531 C 132.140625 73.753906 131.492188 73.121094 130.84375 72.480469 C 128.644531 70.339844 126.484375 68.179688 124.285156 66.039062 C 123.789062 65.558594 123.292969 65.070312 122.8125 64.582031 C 125.542969 61.960938 128.273438 59.332031 130.988281 56.699219 C 132.597656 55.140625 134.214844 53.582031 135.828125 52.03125 C 138.472656 49.5 141.078125 46.929688 143.742188 44.417969 C 157.253906 31.328125 170.800781 18.285156 184.332031 5.214844 C 177.542969 16.609375 170.613281 27.921875 163.761719 39.285156 L 163.710938 39.300781 C 161.351562 43.375 158.847656 47.371094 156.429688 51.414062 C 155.570312 52.847656 154.707031 54.273438 153.832031 55.699219 C 152.988281 57.105469 152.144531 58.519531 151.292969 59.914062 C 153.78125 63.402344 156.367188 66.824219 158.878906 70.296875 C 159.953125 71.78125 161.039062 73.257812 162.136719 74.730469 Z M 162.136719 74.730469 " fill-opacity="1" fill-rule="nonzero"/></g><g fill="#8c9a6d" fill-opacity="1"><g transform="translate(271.473175, 88.799202)"><g><path d="M 18.59375 -14.5 C 18.59375 -13.257812 18.328125 -12.117188 17.796875 -11.078125 C 17.265625 -10.035156 16.5 -9.207031 15.5 -8.59375 C 14.5 -7.988281 13.328125 -7.6875 11.984375 -7.6875 L 6.703125 -7.6875 L 6.703125 0 L 2.25 0 L 2.25 -21.296875 L 11.984375 -21.296875 C 14.035156 -21.296875 15.648438 -20.679688 16.828125 -19.453125 C 18.003906 -18.222656 18.59375 -16.570312 18.59375 -14.5 Z M 14.140625 -14.6875 C 14.140625 -15.726562 13.835938 -16.472656 13.234375 -16.921875 C 12.640625 -17.378906 11.6875 -17.609375 10.375 -17.609375 L 6.703125 -17.609375 L 6.703125 -11.359375 L 10.9375 -11.359375 C 13.070312 -11.359375 14.140625 -12.46875 14.140625 -14.6875 Z M 14.140625 -14.6875 "/></g></g></g><g fill="#8c9a6d" fill-opacity="1"><g transform="translate(292.765628, 88.799202)"><g><path d="M 19.71875 -15.265625 C 19.71875 -14.066406 19.429688 -13.007812 18.859375 -12.09375 C 18.285156 -11.1875 17.472656 -10.554688 16.421875 -10.203125 L 17.140625 -9.84375 C 17.953125 -9.40625 18.484375 -8.789062 18.734375 -8 C 18.992188 -7.21875 19.125 -6.234375 19.125 -5.046875 L 19.125 -3.046875 C 19.125 -1.546875 19.441406 -0.71875 20.078125 -0.5625 L 20.078125 0 L 15.15625 0 C 15.03125 -0.351562 14.921875 -0.816406 14.828125 -1.390625 C 14.742188 -1.960938 14.703125 -2.507812 14.703125 -3.03125 L 14.6875 -5.34375 C 14.6875 -6.25 14.523438 -6.914062 14.203125 -7.34375 C 13.890625 -7.769531 13.492188 -8.039062 13.015625 -8.15625 C 12.546875 -8.269531 11.9375 -8.328125 11.1875 -8.328125 L 6.609375 -8.328125 L 6.609375 0 L 2.25 0 L 2.25 -21.296875 L 13.25 -21.296875 C 14.582031 -21.296875 15.734375 -21.015625 16.703125 -20.453125 C 17.679688 -19.898438 18.425781 -19.171875 18.9375 -18.265625 C 19.457031 -17.359375 19.71875 -16.359375 19.71875 -15.265625 Z M 15.265625 -14.828125 C 15.265625 -15.679688 14.992188 -16.359375 14.453125 -16.859375 C 13.910156 -17.359375 13.1875 -17.609375 12.28125 -17.609375 L 6.609375 -17.609375 L 6.609375 -11.921875 L 11.953125 -11.921875 C 13.054688 -11.921875 13.882812 -12.140625 14.4375 -12.578125 C 14.988281 -13.023438 15.265625 -13.773438 15.265625 -14.828125 Z M 15.265625 -14.828125 "/></g></g></g><g fill="#8c9a6d" fill-opacity="1"><g transform="translate(315.689098, 88.799202)"><g><path d="M 6.609375 -17.53125 L 6.609375 -13.046875 L 17 -13.046875 L 17 -9.28125 L 6.609375 -9.28125 L 6.609375 -3.765625 L 18.421875 -3.765625 L 18.421875 0 L 2.25 0 L 2.25 -21.296875 L 17.90625 -21.296875 L 17.90625 -17.53125 Z M 6.609375 -17.53125 "/></g></g></g><g fill="#8c9a6d" fill-opacity="1"><g transform="translate(336.981551, 88.799202)"><g><path d="M 21.0625 -14.6875 L 16.609375 -14.6875 C 16.523438 -15.238281 16.265625 -15.785156 15.828125 -16.328125 C 15.398438 -16.867188 14.847656 -17.3125 14.171875 -17.65625 C 13.503906 -18 12.765625 -18.171875 11.953125 -18.171875 C 10.078125 -18.171875 8.585938 -17.503906 7.484375 -16.171875 C 6.390625 -14.835938 5.84375 -12.957031 5.84375 -10.53125 C 5.84375 -8.15625 6.375 -6.335938 7.4375 -5.078125 C 8.507812 -3.828125 10.035156 -3.203125 12.015625 -3.203125 C 13.234375 -3.203125 14.320312 -3.609375 15.28125 -4.421875 C 16.238281 -5.234375 16.878906 -6.390625 17.203125 -7.890625 L 12.25 -7.890625 L 12.25 -11.484375 L 21.140625 -11.484375 L 21.140625 0 L 18.171875 0 L 17.734375 -2.671875 C 16.765625 -1.484375 15.75 -0.644531 14.6875 -0.15625 C 13.632812 0.320312 12.445312 0.5625 11.125 0.5625 C 9.238281 0.5625 7.554688 0.113281 6.078125 -0.78125 C 4.597656 -1.6875 3.429688 -2.976562 2.578125 -4.65625 C 1.734375 -6.332031 1.3125 -8.300781 1.3125 -10.5625 C 1.3125 -12.75 1.71875 -14.695312 2.53125 -16.40625 C 3.351562 -18.125 4.550781 -19.460938 6.125 -20.421875 C 7.695312 -21.378906 9.570312 -21.859375 11.75 -21.859375 C 13.46875 -21.859375 15.003906 -21.550781 16.359375 -20.9375 C 17.710938 -20.320312 18.796875 -19.46875 19.609375 -18.375 C 20.429688 -17.289062 20.914062 -16.0625 21.0625 -14.6875 Z M 21.0625 -14.6875 "/></g></g></g><g fill="#8c9a6d" fill-opacity="1"><g transform="translate(361.565692, 88.799202)"><g><path d="M 10.5 -3.203125 C 13.34375 -3.203125 14.765625 -4.546875 14.765625 -7.234375 L 14.765625 -21.296875 L 19.3125 -21.296875 L 19.3125 -7.296875 C 19.3125 -4.765625 18.566406 -2.820312 17.078125 -1.46875 C 15.597656 -0.113281 13.425781 0.5625 10.5625 0.5625 C 7.925781 0.5625 5.863281 -0.0976562 4.375 -1.421875 C 2.882812 -2.742188 2.140625 -4.691406 2.140625 -7.265625 L 2.140625 -21.296875 L 6.671875 -21.296875 L 6.671875 -7.359375 C 6.671875 -6.085938 7.007812 -5.078125 7.6875 -4.328125 C 8.375 -3.578125 9.3125 -3.203125 10.5 -3.203125 Z M 10.5 -3.203125 "/></g></g></g><g fill="#8c9a6d" fill-opacity="1"><g transform="translate(384.489163, 88.799202)"><g><path d="M 15.25 -6.46875 L 15.25 -21.296875 L 19.390625 -21.296875 L 19.390625 0 L 14.953125 0 L 6.25 -15.1875 L 6.203125 -15.1875 L 6.203125 0 L 2.046875 0 L 2.046875 -21.296875 L 6.734375 -21.296875 L 15.1875 -6.46875 Z M 15.25 -6.46875 "/></g></g></g><g fill="#8c9a6d" fill-opacity="1"><g transform="translate(407.412626, 88.799202)"><g><path d="M 11.296875 -17.53125 L 11.296875 0 L 6.84375 0 L 6.84375 -17.53125 L 0.421875 -17.53125 L 0.421875 -21.296875 L 17.734375 -21.296875 L 17.734375 -17.53125 Z M 11.296875 -17.53125 "/></g></g></g><g fill="#8c9a6d" fill-opacity="1"><g transform="translate(427.044399, 88.799202)"><g><path d="M 15.984375 0 L 14.625 -4.390625 L 6.765625 -4.390625 L 5.28125 0 L 0.59375 0 L 8.1875 -21.296875 L 13.3125 -21.296875 L 20.8125 0 Z M 13.375 -8.0625 L 10.734375 -16.484375 L 10.671875 -16.484375 L 7.953125 -8.0625 Z M 13.375 -8.0625 "/></g></g></g><g fill="#8c9a6d" fill-opacity="1"><g transform="translate(449.96787, 88.799202)"><g><path d="M 20.3125 -11.15625 C 20.3125 -8.84375 19.945312 -6.84375 19.21875 -5.15625 C 18.488281 -3.476562 17.460938 -2.195312 16.140625 -1.3125 C 14.828125 -0.4375 13.320312 0 11.625 0 L 2.25 0 L 2.25 -21.296875 L 11.796875 -21.296875 C 13.679688 -21.296875 15.257812 -20.851562 16.53125 -19.96875 C 17.8125 -19.09375 18.757812 -17.894531 19.375 -16.375 C 20 -14.851562 20.3125 -13.113281 20.3125 -11.15625 Z M 15.78125 -10.859375 C 15.78125 -15.359375 14.207031 -17.609375 11.0625 -17.609375 L 6.609375 -17.609375 L 6.609375 -3.671875 L 11.03125 -3.671875 C 12.5 -3.671875 13.65625 -4.3125 14.5 -5.59375 C 15.351562 -6.882812 15.78125 -8.640625 15.78125 -10.859375 Z M 15.78125 -10.859375 "/></g></g></g><g fill="#8c9a6d" fill-opacity="1"><g transform="translate(472.891341, 88.799202)"><g><path d="M 11.53125 0.5625 C 9.5625 0.5625 7.800781 0.144531 6.25 -0.6875 C 4.707031 -1.53125 3.5 -2.789062 2.625 -4.46875 C 1.75 -6.15625 1.3125 -8.210938 1.3125 -10.640625 C 1.3125 -13.035156 1.742188 -15.078125 2.609375 -16.765625 C 3.484375 -18.460938 4.691406 -19.734375 6.234375 -20.578125 C 7.773438 -21.429688 9.539062 -21.859375 11.53125 -21.859375 C 13.53125 -21.859375 15.300781 -21.421875 16.84375 -20.546875 C 18.382812 -19.679688 19.585938 -18.40625 20.453125 -16.71875 C 21.328125 -15.039062 21.765625 -13.015625 21.765625 -10.640625 C 21.765625 -8.234375 21.320312 -6.179688 20.4375 -4.484375 C 19.5625 -2.796875 18.347656 -1.53125 16.796875 -0.6875 C 15.242188 0.144531 13.488281 0.5625 11.53125 0.5625 Z M 17.3125 -10.640625 C 17.3125 -13.015625 16.78125 -14.847656 15.71875 -16.140625 C 14.664062 -17.441406 13.257812 -18.09375 11.5 -18.09375 C 9.78125 -18.09375 8.390625 -17.441406 7.328125 -16.140625 C 6.273438 -14.847656 5.75 -13.015625 5.75 -10.640625 C 5.75 -8.273438 6.269531 -6.441406 7.3125 -5.140625 C 8.363281 -3.847656 9.769531 -3.203125 11.53125 -3.203125 C 13.289062 -3.203125 14.691406 -3.847656 15.734375 -5.140625 C 16.785156 -6.441406 17.3125 -8.273438 17.3125 -10.640625 Z M 17.3125 -10.640625 "/></g></g></g><g fill="#8c9a6d" fill-opacity="1"><g transform="translate(497.47549, 88.799202)"><g><path d="M 19.71875 -15.265625 C 19.71875 -14.066406 19.429688 -13.007812 18.859375 -12.09375 C 18.285156 -11.1875 17.472656 -10.554688 16.421875 -10.203125 L 17.140625 -9.84375 C 17.953125 -9.40625 18.484375 -8.789062 18.734375 -8 C 18.992188 -7.21875 19.125 -6.234375 19.125 -5.046875 L 19.125 -3.046875 C 19.125 -1.546875 19.441406 -0.71875 20.078125 -0.5625 L 20.078125 0 L 15.15625 0 C 15.03125 -0.351562 14.921875 -0.816406 14.828125 -1.390625 C 14.742188 -1.960938 14.703125 -2.507812 14.703125 -3.03125 L 14.6875 -5.34375 C 14.6875 -6.25 14.523438 -6.914062 14.203125 -7.34375 C 13.890625 -7.769531 13.492188 -8.039062 13.015625 -8.15625 C 12.546875 -8.269531 11.9375 -8.328125 11.1875 -8.328125 L 6.609375 -8.328125 L 6.609375 0 L 2.25 0 L 2.25 -21.296875 L 13.25 -21.296875 C 14.582031 -21.296875 15.734375 -21.015625 16.703125 -20.453125 C 17.679688 -19.898438 18.425781 -19.171875 18.9375 -18.265625 C 19.457031 -17.359375 19.71875 -16.359375 19.71875 -15.265625 Z M 15.265625 -14.828125 C 15.265625 -15.679688 14.992188 -16.359375 14.453125 -16.859375 C 13.910156 -17.359375 13.1875 -17.609375 12.28125 -17.609375 L 6.609375 -17.609375 L 6.609375 -11.921875 L 11.953125 -11.921875 C 13.054688 -11.921875 13.882812 -12.140625 14.4375 -12.578125 C 14.988281 -13.023438 15.265625 -13.773438 15.265625 -14.828125 Z M 15.265625 -14.828125 "/></g></g></g><g fill="#8c9a6d" fill-opacity="1"><g transform="translate(520.398961, 88.799202)"><g><path d="M 11.296875 -17.53125 L 11.296875 0 L 6.84375 0 L 6.84375 -17.53125 L 0.421875 -17.53125 L 0.421875 -21.296875 L 17.734375 -21.296875 L 17.734375 -17.53125 Z M 11.296875 -17.53125 "/></g></g></g></svg>