<svg xmlns="http://www.w3.org/2000/svg" xmlns:xlink="http://www.w3.org/1999/xlink" width="1024" zoomAndPan="magnify" viewBox="0 0 768 576" height="768" preserveAspectRatio="xMidYMid meet" version="1.0"><defs><g/><clipPath id="3308d60d70"><path d="M 366 71 L 767.453125 71 L 767.453125 388 L 366 388 Z M 366 71 " clip-rule="nonzero"/></clipPath><clipPath id="8a3c4df649"><path d="M 274 17 L 525 17 L 525 414.1875 L 274 414.1875 Z M 274 17 " clip-rule="nonzero"/></clipPath></defs><path fill="#933031" d="M 365.753906 213.886719 C 368.03125 216.105469 370.308594 218.320312 372.589844 220.535156 C 366.167969 232.027344 359.5625 243.414062 353.101562 254.886719 C 348.570312 262.898438 344.011719 270.890625 339.457031 278.886719 C 338.980469 279.714844 338.527344 280.5625 338.050781 281.410156 C 334.300781 288.078125 330.492188 294.703125 326.785156 301.394531 L 325.9375 301.601562 C 323.371094 301.929688 320.78125 301.847656 318.234375 301.660156 C 306.101562 300.9375 293.964844 300.316406 281.832031 299.652344 C 275.394531 299.261719 268.953125 298.929688 262.511719 298.597656 C 262.304688 302.222656 262.078125 305.863281 261.890625 309.488281 C 261.355469 319.65625 260.710938 329.824219 260.195312 339.988281 C 259.40625 353.34375 258.664062 366.699219 257.917969 380.078125 C 240.441406 383.078125 222.984375 386.144531 205.507812 389.019531 C 198.84375 383.554688 192.089844 378.210938 185.425781 372.765625 C 197.289062 367.757812 209.113281 362.664062 221.019531 357.734375 C 220.460938 356.367188 219.921875 355.042969 219.363281 353.71875 C 215.675781 344.875 211.96875 336.054688 208.242188 327.214844 C 202.816406 314.128906 197.289062 301.0625 191.824219 287.976562 C 186.5 289.425781 181.179688 290.957031 175.859375 292.425781 C 175.421875 293.046875 174.988281 293.648438 174.574219 294.289062 L 174.449219 294.332031 C 167.097656 305.617188 159.519531 316.757812 151.878906 327.855469 C 143.308594 337.171875 134.21875 346.035156 125.480469 355.230469 C 124.113281 356.554688 122.871094 358.417969 120.738281 358.398438 C 107.796875 360.117188 94.855469 361.894531 81.933594 363.636719 C 76.074219 356.824219 70.234375 349.988281 64.355469 343.179688 C 77.503906 339.617188 90.714844 336.199219 103.902344 332.699219 C 105.765625 325.765625 107.609375 318.804688 109.453125 311.871094 C 113.261719 297.6875 117.074219 283.503906 120.78125 269.296875 L 121.132812 269.753906 C 121.109375 269.171875 121.046875 267.992188 121.027344 267.414062 C 98.230469 271.988281 75.410156 276.441406 52.613281 280.996094 C 49.570312 281.554688 46.464844 282.613281 43.378906 281.722656 C 34.703125 279.878906 25.902344 278.554688 17.269531 276.523438 C 11.304688 272.550781 5.796875 267.871094 0 263.644531 C 7.953125 255.03125 15.902344 246.398438 23.875 237.78125 C 26.070312 235.402344 28.265625 233.042969 30.4375 230.679688 C 28.71875 222.855469 26.980469 215.027344 25.28125 207.199219 C 31.785156 201.589844 38.285156 195.996094 44.789062 190.40625 C 47.914062 187.714844 51.039062 185.042969 54.148438 182.332031 C 51.992188 170.03125 49.921875 157.734375 47.8125 145.433594 C 56.488281 149.574219 65.058594 153.945312 73.777344 158.003906 C 79.554688 159.535156 85.578125 159.988281 91.460938 161.128906 C 96.617188 154.792969 101.8125 148.476562 106.925781 142.078125 C 111.835938 146.011719 116.636719 150.09375 121.523438 154.027344 C 140.097656 141.5625 158.859375 129.386719 177.492188 116.984375 C 196.625 121.269531 215.757812 125.515625 234.871094 129.863281 C 236.921875 130.316406 238.992188 130.691406 241.101562 130.835938 C 257.585938 131.789062 274.046875 132.71875 290.527344 133.714844 C 311.195312 134.851562 331.839844 136.117188 352.503906 137.273438 C 354.820312 137.398438 357.140625 137.523438 359.460938 137.6875 C 364.386719 141.933594 369.417969 146.074219 374.367188 150.300781 C 369.773438 154.730469 365.175781 159.140625 360.597656 163.570312 C 352.875 171.066406 345.109375 178.542969 337.347656 185.996094 C 338.734375 187.382812 340.121094 188.769531 341.527344 190.136719 C 347.78125 196.203125 353.953125 202.375 360.183594 208.464844 C 362.046875 210.265625 363.890625 212.066406 365.753906 213.886719 Z M 365.753906 213.886719 " fill-opacity="1" fill-rule="nonzero"/><g clip-path="url(#3308d60d70)"><path fill="#708090" d="M 731.902344 151.582031 C 731.59375 151.75 730.949219 152.058594 730.621094 152.226562 C 731.054688 153.632812 731.53125 155.042969 731.984375 156.46875 L 732.296875 156.285156 C 733.332031 160.011719 731.488281 163.632812 730.722656 167.214844 C 729.523438 172.351562 727.761719 177.382812 726.953125 182.582031 C 734.097656 196.144531 741.65625 209.519531 748.964844 223.019531 C 742.464844 225.648438 736.128906 228.796875 729.5 231.09375 C 724.429688 231.15625 719.375 230.617188 714.324219 230.535156 C 707.65625 230.640625 701.777344 227.058594 695.523438 225.234375 C 683.78125 221.050781 672.019531 216.890625 660.28125 212.667969 C 653.964844 225.070312 647.109375 237.183594 640.691406 249.542969 C 639.925781 250.828125 639.324219 252.402344 637.898438 253.085938 C 633.339844 255.589844 628.703125 257.910156 624.148438 260.394531 C 621.1875 261.988281 618.207031 263.542969 615.265625 265.117188 C 618.308594 266.542969 621.394531 267.953125 624.457031 269.402344 C 633.382812 273.5 642.265625 277.644531 651.167969 281.742188 C 645.539062 302.925781 639.945312 324.085938 634.273438 345.269531 C 623.878906 347.878906 613.484375 350.40625 603.109375 353.011719 C 610.6875 334.210938 618.351562 315.429688 625.929688 296.628906 C 625.371094 296.609375 624.230469 296.566406 623.652344 296.527344 L 623.652344 296.421875 C 610.542969 295.59375 597.457031 294.519531 584.371094 293.605469 C 578.65625 293.191406 572.960938 292.757812 567.269531 292.363281 C 569.9375 300.417969 572.652344 308.453125 575.363281 316.488281 C 563.085938 337.671875 550.804688 358.851562 538.484375 379.992188 C 535.566406 379.992188 532.648438 379.992188 529.75 380.097656 C 522.066406 380.136719 514.382812 380.285156 506.679688 380.367188 C 514.28125 367.113281 521.796875 353.800781 529.4375 340.570312 C 532.75 334.667969 536.125 328.828125 539.460938 322.949219 C 536.207031 320.609375 532.710938 318.597656 529.5625 316.136719 L 529.457031 315.515625 L 528.921875 315.660156 C 523.226562 312.261719 517.988281 308.101562 512.335938 304.601562 C 511.070312 303.628906 509.457031 304.125 508.027344 304.167969 C 500.199219 304.890625 492.351562 305.492188 484.503906 306.15625 C 473.511719 307.085938 462.515625 307.996094 451.519531 308.929688 C 435.410156 310.335938 419.28125 311.582031 403.191406 313.03125 C 400.789062 319.863281 398.242188 326.613281 395.800781 333.425781 C 400.5625 340.941406 405.613281 348.25 410.230469 355.828125 C 415.261719 366.265625 420.046875 376.847656 424.953125 387.363281 C 414.726562 386.621094 404.496094 385.894531 394.246094 385.128906 C 392.984375 376.617188 391.636719 368.128906 390.394531 359.617188 C 382.339844 351.667969 374.246094 343.738281 366.191406 335.765625 C 368.984375 332.949219 371.800781 330.175781 374.636719 327.398438 C 388.945312 313.257812 403.316406 299.175781 417.519531 284.972656 C 424.789062 278.058594 431.785156 270.871094 438.972656 263.871094 C 442.121094 260.828125 445.203125 257.703125 448.332031 254.636719 C 455.351562 247.824219 462.203125 240.847656 469.265625 234.054688 C 472.742188 230.597656 476.242188 227.160156 479.703125 223.660156 C 477.507812 220.699219 475.332031 217.738281 473.136719 214.800781 C 470.011719 210.617188 466.925781 206.414062 463.859375 202.1875 C 456.71875 192.3125 449.367188 182.582031 442.285156 172.660156 C 444.707031 168.6875 447.109375 164.667969 449.511719 160.671875 C 452.015625 156.613281 454.460938 152.554688 456.902344 148.476562 C 462.371094 146.695312 467.753906 144.625 473.324219 143.15625 C 474.421875 142.429688 475.519531 141.664062 476.324219 140.609375 C 485.601562 128.847656 494.984375 117.191406 504.238281 105.429688 C 506.578125 101.992188 511.050781 101.535156 514.550781 99.796875 C 523.660156 96.296875 532.460938 91.867188 541.964844 89.484375 C 547.246094 87.996094 552.523438 86.460938 557.824219 84.992188 C 558.882812 85.59375 559.957031 86.214844 561.035156 86.8125 L 561.035156 86.9375 C 574.308594 94.289062 587.375 102.03125 600.625 109.445312 L 600.625 109.550781 C 609.09375 114.105469 617.253906 119.28125 625.804688 123.710938 C 631.332031 123.816406 636.839844 123.175781 642.371094 123.132812 L 642.371094 123.027344 C 653.675781 122.636719 664.960938 121.992188 676.246094 121.476562 C 679.390625 121.289062 682.582031 121.394531 685.726562 120.875 C 691.671875 119.117188 697.199219 116.15625 703.164062 114.558594 L 703.742188 114.746094 L 703.847656 114.1875 C 707.015625 112.65625 710.410156 111.660156 713.660156 110.335938 C 720.226562 97.3125 726.726562 84.246094 733.414062 71.285156 C 731.199219 88.90625 728.859375 106.503906 726.621094 124.105469 C 728.175781 123.859375 729.75 123.609375 731.34375 123.382812 C 734.675781 122.863281 738.011719 122.347656 741.34375 121.828125 C 750.25 105.574219 758.988281 89.238281 767.992188 73.066406 C 764.515625 95.386719 760.828125 117.667969 757.246094 139.96875 C 748.820312 143.902344 740.371094 147.792969 731.902344 151.582031 Z M 731.902344 151.582031 " fill-opacity="1" fill-rule="nonzero"/></g><g clip-path="url(#8a3c4df649)"><path fill="#8c9a6d" d="M 461.191406 214.839844 C 463.382812 217.78125 465.558594 220.742188 467.753906 223.703125 C 464.316406 227.179688 460.816406 230.640625 457.316406 234.097656 C 450.277344 240.890625 443.425781 247.867188 436.382812 254.679688 C 433.257812 257.742188 430.191406 260.871094 427.023438 263.914062 C 419.839844 270.914062 412.839844 278.097656 405.574219 285.015625 C 391.347656 299.21875 376.976562 313.296875 362.691406 327.441406 C 359.855469 330.214844 357.039062 333.011719 354.242188 335.804688 C 344.757812 345.164062 335.253906 354.484375 325.832031 363.882812 C 308.75 380.550781 291.917969 397.492188 274.792969 414.136719 C 284.917969 396.082031 295.207031 378.109375 305.417969 360.074219 C 312.683594 347.257812 319.953125 334.441406 327.21875 321.644531 C 331.070312 314.894531 334.839844 308.101562 338.753906 301.394531 C 342.460938 294.703125 346.292969 288.078125 350.019531 281.410156 C 350.472656 280.5625 350.949219 279.714844 351.425781 278.886719 C 355.980469 270.871094 360.535156 262.898438 365.070312 254.886719 C 371.53125 243.414062 378.136719 232.027344 384.554688 220.535156 C 382.257812 218.320312 379.980469 216.105469 377.722656 213.886719 C 375.859375 212.066406 374.015625 210.265625 372.175781 208.441406 C 365.921875 202.355469 359.769531 196.203125 353.515625 190.117188 C 352.109375 188.75 350.703125 187.363281 349.335938 185.976562 C 357.101562 178.523438 364.863281 171.046875 372.589844 163.550781 C 377.164062 159.121094 381.761719 154.6875 386.359375 150.277344 C 393.875 143.074219 401.285156 135.761719 408.863281 128.621094 C 447.296875 91.390625 485.832031 54.285156 524.324219 17.117188 C 505.003906 49.523438 485.292969 81.699219 465.808594 114.023438 L 465.664062 114.0625 C 458.953125 125.660156 451.832031 137.027344 444.957031 148.519531 C 442.511719 152.597656 440.046875 156.65625 437.5625 160.714844 C 435.160156 164.710938 432.761719 168.726562 430.335938 172.703125 C 437.417969 182.621094 444.769531 192.355469 451.914062 202.230469 C 454.976562 206.453125 458.0625 210.65625 461.191406 214.839844 Z M 461.191406 214.839844 " fill-opacity="1" fill-rule="nonzero"/></g><g fill="#8c9a6d" fill-opacity="1"><g transform="translate(27.142534, 531.266245)"><g><path d="M 49.703125 -38.765625 C 49.703125 -35.429688 48.988281 -32.375 47.5625 -29.59375 C 46.132812 -26.820312 44.082031 -24.617188 41.40625 -22.984375 C 38.738281 -21.347656 35.609375 -20.53125 32.015625 -20.53125 L 17.90625 -20.53125 L 17.90625 0 L 6.03125 0 L 6.03125 -56.90625 L 32.015625 -56.90625 C 37.515625 -56.90625 41.835938 -55.265625 44.984375 -51.984375 C 48.128906 -48.710938 49.703125 -44.304688 49.703125 -38.765625 Z M 37.8125 -39.234375 C 37.8125 -42.035156 37.003906 -44.039062 35.390625 -45.25 C 33.773438 -46.46875 31.226562 -47.078125 27.75 -47.078125 L 17.90625 -47.078125 L 17.90625 -30.359375 L 29.25 -30.359375 C 34.957031 -30.359375 37.8125 -33.316406 37.8125 -39.234375 Z M 37.8125 -39.234375 "/></g></g></g><g fill="#8c9a6d" fill-opacity="1"><g transform="translate(84.048567, 531.266245)"><g><path d="M 52.71875 -40.828125 C 52.71875 -37.597656 51.945312 -34.765625 50.40625 -32.328125 C 48.875 -29.898438 46.707031 -28.210938 43.90625 -27.265625 L 45.8125 -26.3125 C 47.976562 -25.15625 49.40625 -23.519531 50.09375 -21.40625 C 50.78125 -19.289062 51.125 -16.644531 51.125 -13.46875 L 51.125 -8.171875 C 51.125 -4.148438 51.96875 -1.925781 53.65625 -1.5 L 53.65625 0 L 40.5 0 C 40.1875 -0.945312 39.910156 -2.1875 39.671875 -3.71875 C 39.429688 -5.257812 39.3125 -6.710938 39.3125 -8.078125 L 39.234375 -14.265625 C 39.234375 -16.691406 38.8125 -18.472656 37.96875 -19.609375 C 37.125 -20.753906 36.066406 -21.484375 34.796875 -21.796875 C 33.523438 -22.117188 31.890625 -22.28125 29.890625 -22.28125 L 17.671875 -22.28125 L 17.671875 0 L 6.03125 0 L 6.03125 -56.90625 L 35.4375 -56.90625 C 38.976562 -56.90625 42.054688 -56.164062 44.671875 -54.6875 C 47.285156 -53.207031 49.28125 -51.253906 50.65625 -48.828125 C 52.03125 -46.398438 52.71875 -43.734375 52.71875 -40.828125 Z M 40.828125 -39.625 C 40.828125 -41.90625 40.097656 -43.71875 38.640625 -45.0625 C 37.191406 -46.40625 35.25 -47.078125 32.8125 -47.078125 L 17.671875 -47.078125 L 17.671875 -31.859375 L 31.9375 -31.859375 C 34.90625 -31.859375 37.128906 -32.453125 38.609375 -33.640625 C 40.085938 -34.835938 40.828125 -36.832031 40.828125 -39.625 Z M 40.828125 -39.625 "/></g></g></g><g fill="#8c9a6d" fill-opacity="1"><g transform="translate(145.313644, 531.266245)"><g><path d="M 17.671875 -46.84375 L 17.671875 -34.875 L 45.421875 -34.875 L 45.421875 -24.8125 L 17.671875 -24.8125 L 17.671875 -10.0625 L 49.21875 -10.0625 L 49.21875 0 L 6.03125 0 L 6.03125 -56.90625 L 47.875 -56.90625 L 47.875 -46.84375 Z M 17.671875 -46.84375 "/></g></g></g><g fill="#8c9a6d" fill-opacity="1"><g transform="translate(202.219677, 531.266245)"><g><path d="M 56.28125 -39.234375 L 44.390625 -39.234375 C 44.179688 -40.710938 43.492188 -42.175781 42.328125 -43.625 C 41.160156 -45.082031 39.675781 -46.273438 37.875 -47.203125 C 36.082031 -48.128906 34.101562 -48.59375 31.9375 -48.59375 C 26.914062 -48.59375 22.9375 -46.804688 20 -43.234375 C 17.070312 -39.671875 15.609375 -34.640625 15.609375 -28.140625 C 15.609375 -21.796875 17.035156 -16.945312 19.890625 -13.59375 C 22.742188 -10.238281 26.816406 -8.5625 32.109375 -8.5625 C 35.378906 -8.5625 38.296875 -9.644531 40.859375 -11.8125 C 43.421875 -13.976562 45.125 -17.066406 45.96875 -21.078125 L 32.734375 -21.078125 L 32.734375 -30.671875 L 56.515625 -30.671875 L 56.515625 0 L 48.59375 0 L 47.40625 -7.140625 C 44.8125 -3.960938 42.097656 -1.726562 39.265625 -0.4375 C 36.441406 0.851562 33.257812 1.5 29.71875 1.5 C 24.695312 1.5 20.203125 0.300781 16.234375 -2.09375 C 12.273438 -4.5 9.160156 -7.945312 6.890625 -12.4375 C 4.617188 -16.9375 3.484375 -22.195312 3.484375 -28.21875 C 3.484375 -34.082031 4.578125 -39.300781 6.765625 -43.875 C 8.960938 -48.445312 12.160156 -52.015625 16.359375 -54.578125 C 20.566406 -57.140625 25.578125 -58.421875 31.390625 -58.421875 C 35.984375 -58.421875 40.085938 -57.597656 43.703125 -55.953125 C 47.328125 -54.316406 50.234375 -52.046875 52.421875 -49.140625 C 54.617188 -46.234375 55.90625 -42.929688 56.28125 -39.234375 Z M 56.28125 -39.234375 "/></g></g></g><g fill="#8c9a6d" fill-opacity="1"><g transform="translate(267.923061, 531.266245)"><g><path d="M 28.0625 -8.5625 C 35.664062 -8.5625 39.46875 -12.15625 39.46875 -19.34375 L 39.46875 -56.90625 L 51.609375 -56.90625 L 51.609375 -19.5 C 51.609375 -12.738281 49.625 -7.546875 45.65625 -3.921875 C 41.695312 -0.304688 35.882812 1.5 28.21875 1.5 C 21.1875 1.5 15.675781 -0.265625 11.6875 -3.796875 C 7.695312 -7.335938 5.703125 -12.546875 5.703125 -19.421875 L 5.703125 -56.90625 L 17.828125 -56.90625 L 17.828125 -19.65625 C 17.828125 -16.269531 18.738281 -13.570312 20.5625 -11.5625 C 22.382812 -9.5625 24.882812 -8.5625 28.0625 -8.5625 Z M 28.0625 -8.5625 "/></g></g></g><g fill="#8c9a6d" fill-opacity="1"><g transform="translate(329.188138, 531.266245)"><g><path d="M 40.75 -17.28125 L 40.75 -56.90625 L 51.84375 -56.90625 L 51.84375 0 L 39.953125 0 L 16.71875 -40.578125 L 16.5625 -40.578125 L 16.5625 0 L 5.46875 0 L 5.46875 -56.90625 L 18 -56.90625 L 40.578125 -17.28125 Z M 40.75 -17.28125 "/></g></g></g><g fill="#8c9a6d" fill-opacity="1"><g transform="translate(390.453196, 531.266245)"><g><path d="M 30.203125 -46.84375 L 30.203125 0 L 18.3125 0 L 18.3125 -46.84375 L 1.109375 -46.84375 L 1.109375 -56.90625 L 47.40625 -56.90625 L 47.40625 -46.84375 Z M 30.203125 -46.84375 "/></g></g></g><g fill="#8c9a6d" fill-opacity="1"><g transform="translate(442.920941, 531.266245)"><g><path d="M 42.71875 0 L 39.078125 -11.734375 L 18.078125 -11.734375 L 14.109375 0 L 1.578125 0 L 21.875 -56.90625 L 35.59375 -56.90625 L 55.640625 0 Z M 35.75 -21.5625 L 28.6875 -44.078125 L 28.53125 -44.078125 L 21.25 -21.5625 Z M 35.75 -21.5625 "/></g></g></g><g fill="#8c9a6d" fill-opacity="1"><g transform="translate(504.186037, 531.266245)"><g><path d="M 54.296875 -29.796875 C 54.296875 -23.617188 53.316406 -18.28125 51.359375 -13.78125 C 49.410156 -9.289062 46.675781 -5.867188 43.15625 -3.515625 C 39.644531 -1.171875 35.617188 0 31.078125 0 L 6.03125 0 L 6.03125 -56.90625 L 31.546875 -56.90625 C 36.566406 -56.90625 40.78125 -55.726562 44.1875 -53.375 C 47.59375 -51.03125 50.128906 -47.820312 51.796875 -43.75 C 53.460938 -39.6875 54.296875 -35.035156 54.296875 -29.796875 Z M 42.171875 -29.015625 C 42.171875 -41.054688 37.96875 -47.078125 29.5625 -47.078125 L 17.671875 -47.078125 L 17.671875 -9.828125 L 29.484375 -9.828125 C 33.398438 -9.828125 36.492188 -11.546875 38.765625 -14.984375 C 41.035156 -18.421875 42.171875 -23.097656 42.171875 -29.015625 Z M 42.171875 -29.015625 "/></g></g></g><g fill="#8c9a6d" fill-opacity="1"><g transform="translate(565.451132, 531.266245)"><g><path d="M 30.828125 1.5 C 25.546875 1.5 20.84375 0.378906 16.71875 -1.859375 C 12.601562 -4.109375 9.367188 -7.476562 7.015625 -11.96875 C 4.660156 -16.457031 3.484375 -21.953125 3.484375 -28.453125 C 3.484375 -34.847656 4.644531 -40.304688 6.96875 -44.828125 C 9.300781 -49.347656 12.523438 -52.742188 16.640625 -55.015625 C 20.765625 -57.285156 25.492188 -58.421875 30.828125 -58.421875 C 36.171875 -58.421875 40.898438 -57.253906 45.015625 -54.921875 C 49.140625 -52.597656 52.363281 -49.191406 54.6875 -44.703125 C 57.019531 -40.210938 58.1875 -34.796875 58.1875 -28.453125 C 58.1875 -22.003906 57.007812 -16.519531 54.65625 -12 C 52.300781 -7.488281 49.050781 -4.109375 44.90625 -1.859375 C 40.757812 0.378906 36.066406 1.5 30.828125 1.5 Z M 46.296875 -28.453125 C 46.296875 -34.796875 44.878906 -39.695312 42.046875 -43.15625 C 39.222656 -46.625 35.457031 -48.359375 30.75 -48.359375 C 26.15625 -48.359375 22.441406 -46.625 19.609375 -43.15625 C 16.785156 -39.695312 15.375 -34.796875 15.375 -28.453125 C 15.375 -22.109375 16.773438 -17.207031 19.578125 -13.75 C 22.378906 -10.289062 26.128906 -8.5625 30.828125 -8.5625 C 35.535156 -8.5625 39.289062 -10.289062 42.09375 -13.75 C 44.894531 -17.207031 46.296875 -22.109375 46.296875 -28.453125 Z M 46.296875 -28.453125 "/></g></g></g><g fill="#8c9a6d" fill-opacity="1"><g transform="translate(631.154516, 531.266245)"><g><path d="M 52.71875 -40.828125 C 52.71875 -37.597656 51.945312 -34.765625 50.40625 -32.328125 C 48.875 -29.898438 46.707031 -28.210938 43.90625 -27.265625 L 45.8125 -26.3125 C 47.976562 -25.15625 49.40625 -23.519531 50.09375 -21.40625 C 50.78125 -19.289062 51.125 -16.644531 51.125 -13.46875 L 51.125 -8.171875 C 51.125 -4.148438 51.96875 -1.925781 53.65625 -1.5 L 53.65625 0 L 40.5 0 C 40.1875 -0.945312 39.910156 -2.1875 39.671875 -3.71875 C 39.429688 -5.257812 39.3125 -6.710938 39.3125 -8.078125 L 39.234375 -14.265625 C 39.234375 -16.691406 38.8125 -18.472656 37.96875 -19.609375 C 37.125 -20.753906 36.066406 -21.484375 34.796875 -21.796875 C 33.523438 -22.117188 31.890625 -22.28125 29.890625 -22.28125 L 17.671875 -22.28125 L 17.671875 0 L 6.03125 0 L 6.03125 -56.90625 L 35.4375 -56.90625 C 38.976562 -56.90625 42.054688 -56.164062 44.671875 -54.6875 C 47.285156 -53.207031 49.28125 -51.253906 50.65625 -48.828125 C 52.03125 -46.398438 52.71875 -43.734375 52.71875 -40.828125 Z M 40.828125 -39.625 C 40.828125 -41.90625 40.097656 -43.71875 38.640625 -45.0625 C 37.191406 -46.40625 35.25 -47.078125 32.8125 -47.078125 L 17.671875 -47.078125 L 17.671875 -31.859375 L 31.9375 -31.859375 C 34.90625 -31.859375 37.128906 -32.453125 38.609375 -33.640625 C 40.085938 -34.835938 40.828125 -36.832031 40.828125 -39.625 Z M 40.828125 -39.625 "/></g></g></g><g fill="#8c9a6d" fill-opacity="1"><g transform="translate(692.419612, 531.266245)"><g><path d="M 30.203125 -46.84375 L 30.203125 0 L 18.3125 0 L 18.3125 -46.84375 L 1.109375 -46.84375 L 1.109375 -56.90625 L 47.40625 -56.90625 L 47.40625 -46.84375 Z M 30.203125 -46.84375 "/></g></g></g></svg>