<svg xmlns="http://www.w3.org/2000/svg" xmlns:xlink="http://www.w3.org/1999/xlink" width="665" zoomAndPan="magnify" viewBox="0 0 498.75 256.499992" height="342" preserveAspectRatio="xMidYMid meet" version="1.0"><defs><clipPath id="9e14ece994"><path d="M 0.359375 0 L 498.140625 0 L 498.140625 256 L 0.359375 256 Z M 0.359375 0 " clip-rule="nonzero"/></clipPath><clipPath id="57b0f1cadb"><path d="M 249.25 120.59375 L 264.066406 120.59375 L 264.066406 135.40625 L 249.25 135.40625 Z M 249.25 120.59375 " clip-rule="nonzero"/></clipPath><clipPath id="a4fde0dec0"><path d="M 1.132812 64 L 244 64 L 244 241 L 1.132812 241 Z M 1.132812 64 " clip-rule="nonzero"/></clipPath><clipPath id="e3eb14a9d4"><path d="M 237 34 L 497.414062 34 L 497.414062 239 L 237 239 Z M 237 34 " clip-rule="nonzero"/></clipPath><clipPath id="2ef29a5ef9"><path d="M 178 0 L 340 0 L 340 256 L 178 256 Z M 178 0 " clip-rule="nonzero"/></clipPath></defs><g clip-path="url(#9e14ece994)"><path fill="#ffffff" d="M 0.359375 0 L 498.140625 0 L 498.140625 256 L 0.359375 256 Z M 0.359375 0 " fill-opacity="1" fill-rule="nonzero"/><path fill="#f5f5f5" d="M 0.359375 0 L 498.140625 0 L 498.140625 256 L 0.359375 256 Z M 0.359375 0 " fill-opacity="1" fill-rule="nonzero"/></g><g clip-path="url(#57b0f1cadb)"><path fill="#8c9a6d" d="M 249.25 120.59375 L 264.066406 120.59375 L 264.066406 135.40625 L 249.25 135.40625 Z M 249.25 120.59375 " fill-opacity="1" fill-rule="nonzero"/></g><g clip-path="url(#a4fde0dec0)"><path fill="#933031" d="M 237.457031 126.886719 C 238.929688 128.320312 240.402344 129.75 241.875 131.183594 C 237.726562 138.609375 233.457031 145.964844 229.285156 153.378906 C 226.355469 158.554688 223.410156 163.71875 220.46875 168.882812 C 220.160156 169.417969 219.867188 169.96875 219.558594 170.515625 C 217.136719 174.824219 214.675781 179.105469 212.28125 183.425781 L 211.730469 183.5625 C 210.070312 183.773438 208.398438 183.722656 206.753906 183.601562 C 198.914062 183.132812 191.074219 182.730469 183.234375 182.304688 C 179.074219 182.050781 174.914062 181.835938 170.75 181.621094 C 170.617188 183.960938 170.46875 186.316406 170.351562 188.65625 C 170.003906 195.226562 169.585938 201.796875 169.253906 208.367188 C 168.746094 216.996094 168.261719 225.625 167.78125 234.265625 C 156.488281 236.207031 145.210938 238.1875 133.917969 240.046875 C 129.609375 236.515625 125.25 233.0625 120.941406 229.542969 C 128.609375 226.304688 136.246094 223.015625 143.941406 219.832031 C 143.578125 218.949219 143.230469 218.089844 142.871094 217.234375 C 140.488281 211.523438 138.09375 205.824219 135.683594 200.109375 C 132.179688 191.65625 128.609375 183.214844 125.074219 174.757812 C 121.636719 175.695312 118.199219 176.683594 114.761719 177.632812 C 114.480469 178.035156 114.199219 178.421875 113.929688 178.839844 L 113.851562 178.863281 C 109.101562 186.15625 104.203125 193.355469 99.269531 200.523438 C 93.730469 206.546875 87.855469 212.273438 82.210938 218.210938 C 81.328125 219.070312 80.523438 220.273438 79.144531 220.257812 C 70.785156 221.371094 62.421875 222.519531 54.074219 223.644531 C 50.289062 219.242188 46.515625 214.828125 42.714844 210.425781 C 51.210938 208.125 59.746094 205.917969 68.269531 203.65625 C 69.472656 199.175781 70.664062 194.679688 71.855469 190.195312 C 74.316406 181.03125 76.777344 171.867188 79.171875 162.691406 L 79.398438 162.984375 C 79.386719 162.609375 79.347656 161.847656 79.332031 161.472656 C 64.601562 164.429688 49.859375 167.304688 35.128906 170.25 C 33.164062 170.609375 31.15625 171.292969 29.164062 170.71875 C 23.554688 169.527344 17.871094 168.671875 12.292969 167.359375 C 8.4375 164.789062 4.878906 161.765625 1.132812 159.039062 C 6.269531 153.472656 11.410156 147.894531 16.558594 142.328125 C 17.976562 140.789062 19.394531 139.261719 20.800781 137.738281 C 19.691406 132.679688 18.566406 127.625 17.46875 122.566406 C 21.671875 118.941406 25.871094 115.328125 30.070312 111.714844 C 32.09375 109.976562 34.113281 108.25 36.121094 106.5 C 34.726562 98.550781 33.390625 90.605469 32.023438 82.65625 C 37.632812 85.332031 43.171875 88.15625 48.800781 90.777344 C 52.535156 91.769531 56.429688 92.0625 60.226562 92.796875 C 63.558594 88.703125 66.917969 84.625 70.222656 80.488281 C 73.394531 83.03125 76.496094 85.667969 79.652344 88.210938 C 91.65625 80.15625 103.777344 72.289062 115.816406 64.273438 C 128.179688 67.042969 140.542969 69.785156 152.890625 72.597656 C 154.214844 72.890625 155.554688 73.132812 156.917969 73.226562 C 167.566406 73.839844 178.203125 74.441406 188.851562 75.085938 C 202.207031 75.820312 215.542969 76.636719 228.894531 77.386719 C 230.394531 77.464844 231.894531 77.546875 233.390625 77.652344 C 236.574219 80.394531 239.828125 83.070312 243.023438 85.800781 C 240.054688 88.664062 237.082031 91.515625 234.128906 94.375 C 229.136719 99.21875 224.121094 104.050781 219.101562 108.867188 C 220 109.761719 220.894531 110.660156 221.804688 111.542969 C 225.84375 115.460938 229.832031 119.449219 233.859375 123.382812 C 235.0625 124.546875 236.253906 125.710938 237.457031 126.886719 Z M 237.457031 126.886719 " fill-opacity="1" fill-rule="nonzero"/></g><g clip-path="url(#e3eb14a9d4)"><path fill="#708090" d="M 474.039062 86.628906 C 473.835938 86.738281 473.421875 86.9375 473.207031 87.046875 C 473.488281 87.953125 473.796875 88.863281 474.089844 89.789062 L 474.292969 89.667969 C 474.960938 92.074219 473.769531 94.417969 473.273438 96.730469 C 472.5 100.050781 471.363281 103.300781 470.839844 106.660156 C 475.457031 115.421875 480.339844 124.066406 485.0625 132.789062 C 480.859375 134.488281 476.765625 136.519531 472.484375 138.003906 C 469.207031 138.046875 465.945312 137.699219 462.679688 137.644531 C 458.371094 137.710938 454.570312 135.398438 450.53125 134.21875 C 442.945312 131.515625 435.347656 128.828125 427.761719 126.097656 C 423.679688 134.113281 419.25 141.9375 415.105469 149.925781 C 414.609375 150.753906 414.222656 151.773438 413.296875 152.214844 C 410.355469 153.832031 407.359375 155.332031 404.414062 156.9375 C 402.5 157.96875 400.574219 158.96875 398.675781 159.988281 C 400.640625 160.910156 402.632812 161.820312 404.613281 162.757812 C 410.382812 165.40625 416.121094 168.082031 421.875 170.730469 C 418.234375 184.417969 414.621094 198.089844 410.957031 211.777344 C 404.238281 213.460938 397.523438 215.09375 390.820312 216.78125 C 395.71875 204.632812 400.667969 192.496094 405.566406 180.351562 C 405.203125 180.335938 404.46875 180.308594 404.09375 180.28125 L 404.09375 180.214844 C 395.625 179.679688 387.167969 178.984375 378.714844 178.398438 C 375.019531 178.128906 371.339844 177.847656 367.664062 177.59375 C 369.386719 182.796875 371.140625 187.988281 372.894531 193.179688 C 364.960938 206.867188 357.027344 220.554688 349.066406 234.214844 C 347.179688 234.214844 345.292969 234.214844 343.417969 234.28125 C 338.457031 234.308594 333.492188 234.402344 328.515625 234.453125 C 333.425781 225.890625 338.28125 217.289062 343.21875 208.738281 C 345.359375 204.925781 347.539062 201.152344 349.695312 197.355469 C 347.59375 195.84375 345.332031 194.542969 343.300781 192.953125 L 343.230469 192.550781 L 342.882812 192.644531 C 339.207031 190.449219 335.820312 187.761719 332.167969 185.5 C 331.351562 184.871094 330.308594 185.191406 329.386719 185.21875 C 324.328125 185.6875 319.257812 186.074219 314.1875 186.503906 C 307.082031 187.105469 299.976562 187.695312 292.875 188.296875 C 282.464844 189.207031 272.042969 190.007812 261.648438 190.945312 C 260.097656 195.359375 258.449219 199.722656 256.871094 204.125 C 259.949219 208.980469 263.214844 213.703125 266.195312 218.601562 C 269.449219 225.34375 272.539062 232.179688 275.707031 238.976562 C 269.101562 238.496094 262.492188 238.027344 255.867188 237.53125 C 255.050781 232.03125 254.183594 226.546875 253.378906 221.046875 C 248.175781 215.910156 242.945312 210.785156 237.738281 205.636719 C 239.546875 203.816406 241.363281 202.023438 243.199219 200.230469 C 252.441406 191.09375 261.726562 181.996094 270.90625 172.816406 C 275.601562 168.347656 280.125 163.707031 284.765625 159.183594 C 286.800781 157.21875 288.792969 155.199219 290.8125 153.21875 C 295.347656 148.816406 299.777344 144.308594 304.339844 139.917969 C 306.585938 137.683594 308.847656 135.464844 311.082031 133.203125 C 309.664062 131.289062 308.261719 129.375 306.839844 127.476562 C 304.820312 124.773438 302.828125 122.058594 300.847656 119.328125 C 296.230469 112.945312 291.484375 106.660156 286.90625 100.25 C 288.472656 97.679688 290.023438 95.085938 291.578125 92.503906 C 293.195312 89.882812 294.773438 87.257812 296.351562 84.625 C 299.882812 83.472656 303.363281 82.136719 306.960938 81.183594 C 307.671875 80.71875 308.378906 80.222656 308.902344 79.539062 C 314.894531 71.941406 320.957031 64.40625 326.9375 56.808594 C 328.449219 54.589844 331.339844 54.292969 333.597656 53.167969 C 339.484375 50.910156 345.171875 48.046875 351.3125 46.507812 C 354.726562 45.542969 358.136719 44.554688 361.5625 43.605469 C 362.242188 43.992188 362.9375 44.394531 363.636719 44.78125 L 363.636719 44.863281 C 372.210938 49.609375 380.652344 54.613281 389.214844 59.40625 L 389.214844 59.472656 C 394.6875 62.414062 399.957031 65.757812 405.484375 68.621094 C 409.054688 68.6875 412.617188 68.273438 416.1875 68.246094 L 416.1875 68.179688 C 423.492188 67.925781 430.785156 67.511719 438.074219 67.175781 C 440.109375 67.058594 442.167969 67.125 444.203125 66.789062 C 448.042969 65.652344 451.613281 63.738281 455.46875 62.710938 L 455.84375 62.828125 L 455.910156 62.46875 C 457.957031 61.476562 460.152344 60.835938 462.25 59.980469 C 466.492188 51.5625 470.691406 43.121094 475.015625 34.746094 C 473.582031 46.132812 472.070312 57.503906 470.625 68.875 C 471.628906 68.714844 472.648438 68.554688 473.675781 68.410156 C 475.832031 68.074219 477.984375 67.738281 480.140625 67.40625 C 485.890625 56.902344 491.539062 46.347656 497.355469 35.898438 C 495.109375 50.320312 492.726562 64.714844 490.414062 79.125 C 484.96875 81.667969 479.511719 84.183594 474.039062 86.628906 Z M 474.039062 86.628906 " fill-opacity="1" fill-rule="nonzero"/></g><g clip-path="url(#2ef29a5ef9)"><path fill="#8c9a6d" d="M 299.121094 127.503906 C 300.539062 129.402344 301.945312 131.316406 303.363281 133.230469 C 301.140625 135.476562 298.882812 137.710938 296.621094 139.945312 C 292.070312 144.332031 287.644531 148.84375 283.09375 153.246094 C 281.074219 155.222656 279.09375 157.246094 277.046875 159.210938 C 272.40625 163.734375 267.882812 168.375 263.1875 172.84375 C 253.996094 182.023438 244.710938 191.121094 235.476562 200.257812 C 233.644531 202.050781 231.824219 203.855469 230.019531 205.664062 C 223.890625 211.710938 217.75 217.730469 211.664062 223.804688 C 200.625 234.574219 189.75 245.519531 178.683594 256.273438 C 185.226562 244.609375 191.875 232.996094 198.472656 221.34375 C 203.167969 213.0625 207.863281 204.78125 212.558594 196.511719 C 215.050781 192.148438 217.484375 187.761719 220.011719 183.425781 C 222.40625 179.105469 224.882812 174.824219 227.289062 170.515625 C 227.585938 169.96875 227.894531 169.417969 228.199219 168.882812 C 231.144531 163.707031 234.085938 158.554688 237.015625 153.378906 C 241.191406 145.964844 245.460938 138.609375 249.605469 131.183594 C 248.121094 129.75 246.648438 128.320312 245.191406 126.886719 C 243.988281 125.710938 242.796875 124.546875 241.605469 123.367188 C 237.566406 119.4375 233.59375 115.460938 229.550781 111.527344 C 228.640625 110.644531 227.730469 109.75 226.847656 108.851562 C 231.867188 104.035156 236.882812 99.207031 241.875 94.363281 C 244.832031 91.5 247.800781 88.636719 250.769531 85.789062 C 255.628906 81.132812 260.417969 76.410156 265.3125 71.792969 C 290.144531 47.738281 315.042969 23.761719 339.914062 -0.253906 C 327.433594 20.6875 314.695312 41.476562 302.105469 62.359375 L 302.011719 62.386719 C 297.675781 69.878906 293.074219 77.226562 288.632812 84.652344 C 287.054688 87.285156 285.460938 89.910156 283.855469 92.53125 C 282.304688 95.113281 280.753906 97.707031 279.1875 100.277344 C 283.761719 106.683594 288.511719 112.972656 293.128906 119.355469 C 295.109375 122.085938 297.101562 124.800781 299.121094 127.503906 Z M 299.121094 127.503906 " fill-opacity="1" fill-rule="nonzero"/></g></svg>